<svg width="172" height="45" viewBox="0 0 172 45" fill="none" xmlns="http://www.w3.org/2000/svg">
<path d="M37.0148 44.9305H9.03606C4.4382 44.9305 0.711914 41.2414 0.711914 36.6895V8.99055C0.711914 4.43867 4.4382 0.749634 9.03606 0.749634H37.0148C41.6127 0.749634 45.339 4.43867 45.339 8.99055V36.6895C45.339 41.2414 41.6127 44.9305 37.0148 44.9305Z" fill="#AEA6E1"/>
<path d="M31.0648 23.2465C31.8606 24.2344 32.2648 25.3849 32.2648 26.6855C32.2648 28.5987 31.6206 30.0994 30.3322 31.1623C29.0437 32.2253 27.1995 32.7755 24.7996 32.7755H14.3154V10.4537H24.5469C26.8459 10.4537 28.6143 10.9539 29.8648 11.9419C31.1153 12.9298 31.7469 14.3428 31.7469 16.1686C31.7469 17.5192 31.3806 18.6321 30.6606 19.5325C29.9406 20.4329 28.9932 21.0081 27.8185 21.2832C29.1953 21.6084 30.269 22.2586 31.0648 23.2465ZM19.7596 19.5825H23.3343C25.229 19.5825 26.1764 18.7822 26.1764 17.1815C26.1764 15.5809 25.2038 14.7805 23.2712 14.7805H19.7596V19.5825ZM26.6816 25.9352C26.6816 25.1348 26.4164 24.5096 25.8859 24.0594C25.3554 23.6092 24.5975 23.3841 23.6248 23.3841H19.7722V28.3987H23.6627C25.6711 28.3862 26.6816 27.5733 26.6816 25.9352Z" fill="white"/>
<path d="M71.1955 32.7755L66.3197 24.347H65.0818V32.7755H59.625V10.4537H68.9344C70.7154 10.4537 72.2312 10.7539 73.4565 11.3666C74.6944 11.9794 75.6165 12.8172 76.2354 13.8802C76.8544 14.9431 77.1575 16.1561 77.1575 17.5317C77.1575 19.1573 76.7028 20.5329 75.8059 21.6709C74.8965 22.8089 73.5954 23.5842 71.8649 24.0094L77.2207 32.788H71.1955V32.7755ZM65.0818 20.658H68.4544C69.5407 20.658 70.3365 20.4204 70.8418 19.9452C71.347 19.47 71.6123 18.7697 71.6123 17.8443C71.6123 16.9564 71.347 16.2686 70.8291 15.7559C70.3112 15.2557 69.5154 14.9931 68.4544 14.9931H65.0818V20.658Z" fill="#AEA6E1"/>
<path d="M101.84 28.711H93.3898L91.9876 32.7877H86.2529L94.5139 10.6285H100.792L109.053 32.7877H103.255L101.84 28.711ZM100.438 24.5968L97.6339 16.3934L94.7918 24.5968H100.438Z" fill="#AEA6E1"/>
<path d="M139.153 32.7755H133.696L124.576 19.0698V32.7755H119.119V10.4537H124.576L133.696 24.2845V10.4537H139.153V32.7755Z" fill="#AEA6E1"/>
<path d="M169.747 27.3982C168.799 29.0864 167.435 30.4119 165.667 31.3623C163.886 32.3127 161.801 32.7879 159.401 32.7879H150.888V10.4662H159.401C161.827 10.4662 163.923 10.9289 165.679 11.8543C167.448 12.7796 168.799 14.0802 169.747 15.7684C170.694 17.4566 171.161 19.3824 171.161 21.5833C171.161 23.7592 170.681 25.6975 169.747 27.3982ZM163.873 26.2727C165.048 25.1598 165.641 23.5841 165.641 21.5708C165.641 19.5449 165.048 17.9818 163.873 16.8688C162.698 15.7559 161.043 15.1931 158.909 15.1931H156.332V27.9484H158.909C161.043 27.9484 162.698 27.3982 163.873 26.2727Z" fill="#AEA6E1"/>
</svg>
