<svg width="122" height="50" viewBox="0 0 122 50" fill="none" xmlns="http://www.w3.org/2000/svg">
<path d="M0.124023 30.6488V0.484009H18.0692V30.6341H0.124023V30.6488ZM15.8949 23.631L16.3566 20.299L14.6886 20.1368L14.1823 22.7022C13.1398 23.2182 11.8591 23.4688 10.3252 23.4688C8.2403 23.4688 6.58725 22.8201 5.38098 21.508C4.15982 20.1958 3.56413 18.4709 3.56413 16.3183C3.56413 14.2248 4.15982 12.4998 5.33631 11.1434C6.51279 9.78704 8.06163 9.10885 9.98273 9.10885C10.9656 9.10885 11.7996 9.2268 12.4697 9.44794C13.1399 9.6691 13.7504 9.96396 14.3312 10.3473L14.8227 12.8831L16.5204 12.721L16.029 9.38897C15.3141 8.7845 14.4653 8.29797 13.4824 7.91464C12.4995 7.54606 11.2783 7.35439 9.83379 7.35439C8.12119 7.35439 6.64685 7.76721 5.4108 8.60758C4.17474 9.44795 3.20674 10.5537 2.5217 11.9248C1.83665 13.3107 1.49413 14.7998 1.49413 16.392C1.49413 18.9132 2.28341 21.0215 3.86199 22.7022C5.44057 24.3829 7.49569 25.2233 10.0423 25.2233C12.5442 25.2233 14.4951 24.6925 15.8949 23.631Z" fill="#AEA6E1"/>
<path d="M24.1602 30.6488V0.484009H31.8743V30.6341H24.1602V30.6488ZM24.9792 24.9579H31.0701V23.4394H28.9704V6.60249H24.9494V8.12105H27.079V23.4394H24.9792V24.9579Z" fill="#AEA6E1"/>
<path d="M37.9658 30.6488V0.484009H51.5178V30.6341H37.9658V30.6488ZM40.423 13.9889L39.9912 16.7311L41.5549 16.9228L42.0165 14.8735C42.6867 14.5491 43.4462 14.387 44.3397 14.387C45.4119 14.387 46.1417 14.6523 46.514 15.1831C46.8863 15.7139 47.065 16.4068 47.065 17.2619V18.3234C46.7374 18.2939 46.3948 18.2645 46.0225 18.2497C45.6502 18.235 45.2928 18.2202 44.9354 18.2202C43.5951 18.2202 42.3143 18.4561 41.123 18.9279C39.9316 19.3997 39.3359 20.3875 39.3359 21.8766C39.3359 23.1445 39.738 24.0143 40.5571 24.4861C41.3762 24.9727 42.1803 25.2086 42.9696 25.2086C43.9376 25.2086 44.7716 24.9579 45.4566 24.4566C46.1417 23.9554 46.6778 23.3951 47.065 22.7464V22.8054C47.0948 24.4124 47.8245 25.2086 49.2542 25.2086C49.8052 25.2086 50.3264 25.0759 50.8178 24.8105L50.7881 23.5868C50.5498 23.69 50.2817 23.749 49.9839 23.749C49.2988 23.749 48.9563 23.3214 48.9563 22.4663V16.8196C48.9563 14.1658 47.5266 12.8389 44.6673 12.8389C43.878 12.8389 43.1334 12.9274 42.4335 13.1043C41.7187 13.296 41.0485 13.5908 40.423 13.9889ZM47.0501 20.5054C46.9756 21.4785 46.5735 22.2599 45.8438 22.8201C45.1141 23.3951 44.3397 23.6752 43.5057 23.6752C42.9845 23.6752 42.4782 23.5278 42.0016 23.2477C41.5102 22.9676 41.2719 22.4368 41.2719 21.6702C41.2719 20.7413 41.6442 20.1516 42.359 19.8715C43.0888 19.5913 43.8929 19.4587 44.8014 19.4587C45.2034 19.4587 45.5906 19.4734 45.9629 19.5176C46.3353 19.5471 46.7076 19.5766 47.0352 19.5913V20.5054H47.0501Z" fill="#AEA6E1"/>
<path d="M57.623 30.6488V0.484009H69.9389V30.6341H57.623V30.6488ZM68.6433 21.5227C68.6433 20.5792 68.3901 19.8862 67.8838 19.4292C67.3774 18.9721 66.7669 18.6625 66.0222 18.4856C65.2776 18.3087 64.5479 18.1612 63.8182 18.0433C63.0885 17.9254 62.463 17.7337 61.9567 17.4831C61.4504 17.2324 61.1972 16.7901 61.1972 16.1562C61.1972 15.5517 61.4354 15.1094 61.9269 14.8145C62.4183 14.5196 63.0289 14.387 63.7884 14.387C64.6671 14.387 65.4862 14.5786 66.2457 14.9767L66.5435 16.8933L68.1072 16.7017L67.8093 13.9299C67.303 13.6203 66.6924 13.3697 65.9627 13.1633C65.233 12.9569 64.4586 12.8389 63.6246 12.8389C62.5226 12.8389 61.5099 13.1043 60.5717 13.6203C59.6335 14.1363 59.1719 15.0209 59.1719 16.2888C59.1719 17.2177 59.425 17.8959 59.9313 18.3234C60.4377 18.7657 61.0632 19.0606 61.8227 19.2375C62.5822 19.4144 63.3268 19.5619 64.0714 19.6946C64.816 19.8125 65.4415 20.0189 65.9478 20.2843C66.4541 20.5497 66.7073 21.0067 66.7073 21.6702C66.7073 22.3483 66.3796 22.8496 65.7244 23.174C65.0691 23.4983 64.3245 23.6605 63.4757 23.6605C62.5226 23.6605 61.629 23.4688 60.81 23.0708L60.8845 21.4932L59.3803 21.3311L59.008 24.0291C59.5292 24.3682 60.2143 24.6483 61.0482 24.8695C61.8822 25.0906 62.7162 25.2086 63.565 25.2086C65.0096 25.2086 66.2159 24.8842 67.1839 24.2207C68.1519 23.5868 68.6433 22.6727 68.6433 21.5227Z" fill="#AEA6E1"/>
<path d="M76.0293 30.6488V0.484009H88.3451V30.6341H76.0293V30.6488ZM87.0495 21.5227C87.0495 20.5792 86.7963 19.8862 86.29 19.4292C85.7836 18.9721 85.1731 18.6625 84.4285 18.4856C83.6838 18.3087 82.9541 18.1612 82.2244 18.0433C81.4947 17.9254 80.8692 17.7337 80.3629 17.4831C79.8566 17.2324 79.6034 16.7901 79.6034 16.1562C79.6034 15.5517 79.8416 15.1094 80.3331 14.8145C80.8245 14.5196 81.4351 14.387 82.1946 14.387C83.0733 14.387 83.8924 14.5786 84.6519 14.9767L84.9497 16.8933L86.5134 16.7017L86.2155 13.9299C85.7092 13.6203 85.0986 13.3697 84.3689 13.1633C83.6392 12.9569 82.8648 12.8389 82.0308 12.8389C80.9288 12.8389 79.9161 13.1043 78.9779 13.6203C78.0397 14.1363 77.5781 15.0209 77.5781 16.2888C77.5781 17.2177 77.8312 17.8959 78.3376 18.3234C78.8439 18.7657 79.4694 19.0606 80.2289 19.2375C80.9884 19.4144 81.733 19.5619 82.4776 19.6946C83.2222 19.8125 83.8477 20.0189 84.354 20.2843C84.8603 20.5497 85.1135 21.0067 85.1135 21.6702C85.1135 22.3483 84.7859 22.8496 84.1307 23.174C83.4754 23.4983 82.7308 23.6605 81.8819 23.6605C80.9288 23.6605 80.0352 23.4688 79.2162 23.0708L79.2907 21.4932L77.7866 21.3311L77.4143 24.0291C77.9355 24.3682 78.6205 24.6483 79.4545 24.8695C80.2885 25.0906 81.1224 25.2086 81.9713 25.2086C83.4158 25.2086 84.6221 24.8842 85.5901 24.2207C86.5581 23.5868 87.0495 22.6727 87.0495 21.5227Z" fill="#AEA6E1"/>
<path d="M94.4365 30.6488V0.484009H102.553V30.6341H94.4365V30.6488ZM95.6279 24.9579H101.719V23.4394H99.619V13.0895H95.5833V14.6081H97.7426V23.4394H95.6428V24.9579H95.6279ZM97.5341 7.59029V10.0229H99.5893V7.59029H97.5341Z" fill="#AEA6E1"/>
<path d="M108.644 30.6488V0.484009H121.615V30.6341H108.644V30.6488ZM120.453 20.9625L118.83 20.6086C118.472 22.6137 117.385 23.6163 115.598 23.6163C114.407 23.6163 113.498 23.2182 112.873 22.4221C112.248 21.6259 111.935 20.5054 111.935 19.0901C111.935 17.8074 112.218 16.7164 112.769 15.8023C113.32 14.8882 114.243 14.4459 115.524 14.4459C116.507 14.4459 117.37 14.6671 118.085 15.1094L118.547 17.1145L120.111 16.9228L119.649 14.0626C119.038 13.6056 118.398 13.2812 117.728 13.1043C117.058 12.9274 116.328 12.8389 115.539 12.8389C113.677 12.8389 112.262 13.4876 111.339 14.785C110.401 16.0824 109.939 17.5568 109.939 19.1933C109.939 21.0952 110.431 22.5842 111.428 23.631C112.411 24.6925 113.737 25.2233 115.39 25.2233C117.043 25.2233 118.264 24.7663 119.038 23.8669C119.813 22.9528 120.289 21.9945 120.453 20.9625Z" fill="#AEA6E1"/>
<path d="M7.8827 47.1177C7.54018 47.7369 7.03383 48.2234 6.37857 48.5625C5.70842 48.9016 4.91912 49.0785 3.9958 49.0785H1.33008V40.7633H3.9958C4.91912 40.7633 5.72331 40.9255 6.37857 41.2646C7.03383 41.6037 7.54018 42.0755 7.8827 42.7094C8.22522 43.3434 8.38903 44.0658 8.38903 44.9209C8.38903 45.7613 8.22522 46.4985 7.8827 47.1177ZM6.40834 47.2798C6.98914 46.7196 7.27211 45.9382 7.27211 44.9209C7.27211 43.9036 6.98914 43.1222 6.40834 42.562C5.82754 42.0017 4.99357 41.7216 3.89155 41.7216H2.38746V48.1202H3.89155C4.99357 48.1202 5.82754 47.8401 6.40834 47.2798Z" fill="#AEA6E1"/>
<path d="M13.9143 41.6332V44.4786H17.1013V45.3042H13.9143V48.2087H17.4587V49.0785H12.8271V40.7633H17.4587V41.6332H13.9143Z" fill="#AEA6E1"/>
<path d="M26.87 48.0166C26.6764 48.3557 26.3934 48.6358 26.0062 48.8422C25.619 49.0486 25.1425 49.1666 24.5617 49.1666C24.0107 49.1666 23.5043 49.0634 23.0724 48.8717C22.6406 48.6653 22.2981 48.3999 22.03 48.0461C21.7768 47.6923 21.6279 47.2942 21.5832 46.8519H22.7448C22.7746 47.0878 22.8491 47.3237 22.9831 47.5448C23.1171 47.766 23.3256 47.9576 23.5788 48.1051C23.8319 48.2525 24.1447 48.3262 24.517 48.3262C24.9935 48.3262 25.3659 48.2083 25.6191 47.9429C25.8722 47.6775 26.0062 47.3679 26.0062 46.9698C26.0062 46.6307 25.9169 46.3506 25.7382 46.1442C25.5595 45.9378 25.3361 45.7609 25.0829 45.6429C24.8297 45.525 24.4574 45.3923 24.0107 45.2449C23.4745 45.068 23.0576 44.9058 22.73 44.7583C22.4023 44.6109 22.1342 44.375 21.9109 44.0654C21.6875 43.7558 21.5684 43.3577 21.5684 42.8564C21.5684 42.4289 21.6726 42.0456 21.8811 41.7065C22.0896 41.3821 22.3874 41.1167 22.7895 40.9398C23.1767 40.7629 23.6533 40.6744 24.1745 40.6744C24.9936 40.6744 25.6637 40.8661 26.1402 41.2642C26.6317 41.6622 26.8998 42.1635 26.9891 42.7827H25.8275C25.7679 42.4584 25.5892 42.1635 25.3212 41.9129C25.0382 41.6622 24.6659 41.5296 24.1894 41.5296C23.7575 41.5296 23.4001 41.6475 23.1469 41.8686C22.8789 42.0898 22.7597 42.4142 22.7597 42.8122C22.7597 43.1366 22.8491 43.402 23.0129 43.5936C23.1916 43.8 23.4001 43.9475 23.6533 44.0654C23.9064 44.1833 24.2638 44.3013 24.6957 44.4487C25.2318 44.6256 25.6637 44.7878 26.0062 44.95C26.3338 45.1122 26.6168 45.3481 26.8402 45.6577C27.0636 45.9673 27.1827 46.3948 27.1827 46.9256C27.1529 47.3089 27.0636 47.6775 26.87 48.0166Z" fill="#AEA6E1"/>
<path d="M32.678 40.7633V49.0785H31.5908V40.7633H32.678Z" fill="#AEA6E1"/>
<path d="M43.6686 41.397C44.3387 41.8835 44.7855 42.5322 45.0089 43.3578H43.8622C43.6686 42.8566 43.3261 42.4437 42.8644 42.1489C42.4027 41.8393 41.8517 41.6918 41.2114 41.6918C40.6455 41.6918 40.1242 41.8245 39.6774 42.0899C39.2307 42.3553 38.8733 42.7239 38.6052 43.2104C38.3521 43.6969 38.218 44.2719 38.218 44.9354C38.218 45.6136 38.3521 46.2033 38.6052 46.6898C38.8584 47.1763 39.2307 47.5597 39.6923 47.8251C40.154 48.0904 40.6901 48.2231 41.3007 48.2231C41.822 48.2231 42.2836 48.1052 42.7155 47.8988C43.1473 47.6776 43.4898 47.3533 43.7728 46.9405C44.0557 46.5276 44.2047 46.0264 44.2643 45.4661H40.9582V44.67H45.1727V45.6578C45.0982 46.3212 44.8897 46.911 44.5472 47.4565C44.2047 48.002 43.7431 48.4148 43.1623 48.7244C42.5815 49.034 41.9262 49.1962 41.1816 49.1962C40.3774 49.1962 39.6625 49.0193 39.0371 48.6654C38.4116 48.3116 37.935 47.8103 37.5925 47.1616C37.25 46.5276 37.0713 45.7905 37.0713 44.9648C37.0713 44.1392 37.25 43.4021 37.5925 42.7681C37.935 42.1341 38.4265 41.6181 39.0371 41.2643C39.6477 40.9104 40.3625 40.7188 41.1667 40.7188C42.1793 40.6893 42.9984 40.9252 43.6686 41.397Z" fill="#AEA6E1"/>
<path d="M56.1627 49.0785H55.0756L50.7121 42.503V49.0785H49.625V40.7633H50.7121L55.0756 47.3388V40.7633H56.1627V49.0785Z" fill="#AEA6E1"/>
<path d="M71.83 48.0166C71.6364 48.3557 71.3534 48.6358 70.9662 48.8422C70.579 49.0486 70.1025 49.1666 69.5217 49.1666C68.9707 49.1666 68.4643 49.0634 68.0325 48.8717C67.6006 48.6653 67.258 48.3999 66.99 48.0461C66.7368 47.6923 66.5879 47.2942 66.5432 46.8519H67.7048C67.7346 47.0878 67.8091 47.3237 67.9431 47.5448C68.0771 47.766 68.2856 47.9576 68.5387 48.1051C68.7919 48.2525 69.1046 48.3262 69.477 48.3262C69.9535 48.3262 70.3258 48.2083 70.579 47.9429C70.8321 47.6775 70.9662 47.3679 70.9662 46.9698C70.9662 46.6307 70.8768 46.3506 70.6981 46.1442C70.5194 45.9378 70.296 45.7609 70.0429 45.6429C69.7897 45.525 69.4174 45.3923 68.9707 45.2449C68.4345 45.068 68.0175 44.9058 67.6899 44.7583C67.3622 44.6109 67.0942 44.375 66.8708 44.0654C66.6474 43.7558 66.5283 43.3577 66.5283 42.8564C66.5283 42.4289 66.6325 42.0456 66.841 41.7065C67.0495 41.3821 67.3474 41.1167 67.7495 40.9398C68.1367 40.7629 68.6132 40.6744 69.1345 40.6744C69.9535 40.6744 70.6237 40.8661 71.1002 41.2642C71.5917 41.6622 71.8598 42.1635 71.9491 42.7827H70.7875C70.7279 42.4584 70.5492 42.1635 70.2811 41.9129C69.9982 41.6622 69.6259 41.5296 69.1494 41.5296C68.7175 41.5296 68.3601 41.6475 68.1069 41.8686C67.8388 42.0898 67.7197 42.4142 67.7197 42.8122C67.7197 43.1366 67.809 43.402 67.9728 43.5936C68.1515 43.8 68.36 43.9475 68.6132 44.0654C68.8663 44.1833 69.2238 44.3013 69.6557 44.4487C70.1918 44.6256 70.6237 44.7878 70.9662 44.95C71.2938 45.1122 71.5768 45.3481 71.8001 45.6577C72.0235 45.9673 72.1426 46.3948 72.1426 46.9256C72.1128 47.3089 72.0236 47.6775 71.83 48.0166Z" fill="#AEA6E1"/>
<path d="M81.7031 40.7633V41.6332H79.3352V49.0785H78.2331V41.6332H75.8652V40.7633H81.7031Z" fill="#AEA6E1"/>
<path d="M86.7673 40.7633V45.7465C86.7673 46.5574 86.946 47.1619 87.3183 47.56C87.6906 47.9433 88.182 48.1497 88.8373 48.1497C89.4777 48.1497 89.9691 47.958 90.3265 47.56C90.6839 47.1619 90.8626 46.5722 90.8626 45.7613V40.778H91.9498V45.7613C91.9498 46.8965 91.6668 47.7516 91.1009 48.3119C90.535 48.8869 89.7755 49.167 88.8224 49.167C87.8842 49.167 87.1247 48.8869 86.5588 48.3119C85.9929 47.7369 85.71 46.8965 85.71 45.7613V40.778H86.7673V40.7633Z" fill="#AEA6E1"/>
<path d="M103.163 47.1177C102.82 47.7369 102.314 48.2234 101.659 48.5625C100.989 48.9016 100.199 49.0785 99.276 49.0785H96.6104V40.7633H99.276C100.199 40.7633 101.003 40.9255 101.659 41.2646C102.314 41.6037 102.82 42.0755 103.163 42.7094C103.505 43.3434 103.669 44.0658 103.669 44.9209C103.669 45.7613 103.505 46.4985 103.163 47.1177ZM101.703 47.2798C102.284 46.7196 102.567 45.9382 102.567 44.9209C102.567 43.9036 102.284 43.1222 101.703 42.562C101.123 42.0017 100.289 41.7216 99.1867 41.7216H97.6825V48.1202H99.1867C100.274 48.1202 101.123 47.8401 101.703 47.2798Z" fill="#AEA6E1"/>
<path d="M109.209 40.7633V49.0785H108.122V40.7633H109.209Z" fill="#AEA6E1"/>
<path d="M119.872 41.2053C120.497 41.5739 120.989 42.0751 121.346 42.7239C121.703 43.3726 121.882 44.1097 121.882 44.9206C121.882 45.7315 121.703 46.4687 121.346 47.1174C120.989 47.7661 120.497 48.2673 119.872 48.6359C119.246 49.0045 118.546 49.1814 117.772 49.1814C116.997 49.1814 116.283 49.0045 115.657 48.6359C115.032 48.2673 114.525 47.7661 114.168 47.1174C113.811 46.4687 113.632 45.7315 113.632 44.9206C113.632 44.1097 113.811 43.3726 114.168 42.7239C114.525 42.0751 115.017 41.5739 115.657 41.2053C116.298 40.8367 116.997 40.6598 117.772 40.6598C118.546 40.6598 119.246 40.8367 119.872 41.2053ZM116.208 42.0604C115.747 42.3258 115.389 42.6944 115.136 43.1956C114.883 43.6822 114.749 44.2572 114.749 44.9206C114.749 45.5693 114.883 46.1443 115.136 46.6456C115.389 47.1468 115.747 47.5154 116.208 47.7808C116.67 48.0462 117.176 48.1789 117.757 48.1789C118.323 48.1789 118.844 48.0462 119.306 47.7808C119.767 47.5154 120.125 47.1321 120.378 46.6456C120.631 46.159 120.765 45.5841 120.765 44.9353C120.765 44.2719 120.631 43.6969 120.378 43.2104C120.125 42.7239 119.767 42.3405 119.306 42.0751C118.844 41.8098 118.338 41.6771 117.757 41.6771C117.191 41.6623 116.67 41.795 116.208 42.0604Z" fill="#AEA6E1"/>
</svg>
