<svg width="152" height="46" viewBox="0 0 152 46" fill="none" xmlns="http://www.w3.org/2000/svg">
<path d="M21.278 9.20419L22.3949 8.9683C22.6778 8.9683 22.9161 9.02727 23.0799 9.14522C23.2437 9.26316 23.3331 9.38111 23.3331 9.48431C23.3331 9.58752 23.3033 9.74969 23.2586 9.94136C23.214 10.133 22.797 12.1086 22.0226 15.8387C21.2482 19.5687 20.6823 22.3552 20.3249 24.1834C22.0524 21.854 24.0777 18.9938 26.386 15.588C28.6943 12.1823 30.0495 9.92661 30.4367 8.80612C30.5558 8.45228 30.7196 8.1869 30.9132 7.99524C31.1068 7.80358 31.2856 7.68563 31.4345 7.65614C31.5834 7.62666 31.8217 7.59717 32.1344 7.59717C32.4472 7.59717 32.8195 7.67089 33.2513 7.80358C33.6832 7.93627 33.9066 8.15741 33.9066 8.48177C33.9066 9.0715 33.013 10.7965 31.2409 13.6272C29.4687 16.4579 27.4285 19.4655 25.1351 22.6501C22.8417 25.8347 20.9354 28.3558 19.4015 30.2134C19.1335 30.5378 18.791 30.7147 18.4038 30.7147C18.0166 30.7147 17.5996 30.641 17.1677 30.5083C16.7358 30.3756 16.5124 30.1397 16.5124 29.7859C16.5124 28.6801 17.4953 23.343 19.4611 13.8041C17.7783 15.9566 15.738 18.9643 13.3404 22.8123C10.8385 26.793 9.42375 29.2698 9.09612 30.2134C8.91741 30.7884 8.70892 31.1275 8.47065 31.216C8.30683 31.2897 8.12812 31.3192 7.94941 31.3192L6.74314 31.4519C6.50487 31.4519 6.29637 31.3929 6.08788 31.2602C5.89428 31.1275 5.79004 30.9948 5.79004 30.8474C5.79004 30.4493 6.35595 29.2404 7.47287 27.2353C8.58979 25.2302 9.91519 23.0482 11.4193 20.6892C12.9234 18.3303 14.4871 16.0451 16.1253 13.8188C17.7634 11.5926 19.0292 10.0888 19.9228 9.33688C20.1015 9.1747 20.31 9.10099 20.5483 9.10099L21.278 9.20419Z" fill="#AEA6E1"/>
<path d="M39.1779 19.2003C39.9523 19.2003 40.3395 19.4657 40.3395 19.9817C40.3395 20.2618 40.28 20.4682 40.1459 20.6009C40.0119 20.7336 39.729 21.1611 39.2971 21.913C38.8652 22.6502 38.3886 23.5938 37.8674 24.7585C37.3462 25.9085 37.0037 26.8963 36.8548 27.7072C36.825 27.8104 36.8101 27.9431 36.8101 28.1347C36.8101 28.695 36.959 28.9604 37.2717 28.9604C37.5845 28.9604 37.9419 28.8129 38.3589 28.5328C38.7759 28.2379 39.1482 27.9431 39.4758 27.604C39.8034 27.2796 40.1162 26.9405 40.4289 26.6014C40.7416 26.2623 40.9203 26.0559 40.9799 26.0117C41.0395 25.9675 41.1288 25.938 41.248 25.938C41.4416 25.938 41.5607 26.0854 41.6054 26.3803C41.6501 26.6751 41.6649 26.97 41.6649 27.2944C41.6649 27.6187 41.6352 27.8251 41.5756 27.9431C41.2778 28.518 40.6374 29.211 39.6247 30.0219C38.6269 30.8328 37.7036 31.2308 36.8846 31.2308C36.0655 31.2308 35.4549 30.9802 35.0826 30.4937C34.7103 30.0071 34.5018 29.4469 34.5018 28.8572C34.5018 28.2527 34.606 27.7367 34.8145 27.2796C33.9657 28.3706 32.9977 29.2847 31.9105 30.0514C30.8085 30.8033 29.9299 31.1866 29.2299 31.1866C28.53 31.1866 27.979 30.9802 27.5322 30.5674C26.9663 30.0514 26.6982 29.3437 26.6982 28.4296C26.6982 27.5155 26.9067 26.6014 27.3237 25.6726C27.7407 24.7585 28.2768 23.9034 28.947 23.1515C29.6171 22.3848 30.3617 21.6919 31.1659 21.0727C32.8487 19.7605 34.4124 19.1118 35.8421 19.1118C36.3931 19.1118 36.8399 19.2003 37.1824 19.3772C37.5249 19.5541 37.7483 19.79 37.8377 20.0554C38.0759 19.6868 38.2844 19.4657 38.4631 19.3625C38.5972 19.2445 38.8503 19.2003 39.1779 19.2003ZM37.1526 20.881C35.4102 20.881 33.6082 21.8393 31.7467 23.756C31.0915 24.4489 30.4809 25.2598 29.915 26.2181C29.3491 27.1764 29.081 27.8251 29.081 28.179C29.081 28.5328 29.1853 28.7097 29.3938 28.7097C29.6767 28.7097 30.466 28.1495 31.7765 27.0437C33.087 25.938 33.9508 25.1123 34.3678 24.5816C34.8443 23.9919 35.7676 22.7534 37.1526 20.881Z" fill="#AEA6E1"/>
<path d="M50.7649 11.2095L51.3904 11.3569C51.4797 11.3569 51.5691 11.4011 51.6286 11.4896C51.7031 11.5781 51.7329 11.6665 51.7329 11.7402C51.7329 11.8139 51.6286 12.0351 51.4053 12.3889C51.1819 12.7428 50.9436 13.1408 50.6457 13.5831C50.3479 14.0254 50.199 14.2761 50.1841 14.3203C50.9734 14.2613 51.5393 14.2319 51.8669 14.2319C52.1945 14.2319 52.4179 14.2613 52.5519 14.3056C52.6711 14.3498 52.82 14.4825 52.9689 14.6889C53.1327 14.8953 53.2668 15.0575 53.4008 15.1607C53.5348 15.2639 53.5944 15.4261 53.5944 15.6325C53.5944 15.8389 53.4604 16.0305 53.2072 16.1632C52.954 16.3107 52.6711 16.3991 52.3732 16.4286C50.0054 16.6645 48.7098 16.7824 48.4715 16.7972C47.6524 18.0504 46.4908 19.9965 45.0165 22.6355C43.5421 25.2746 42.7529 26.9406 42.6635 27.604C42.6188 27.9137 42.6039 28.1495 42.6039 28.3412C42.6039 28.7393 42.8124 28.9309 43.2294 28.9309C43.6464 28.9309 44.108 28.7688 44.6144 28.4592C45.1207 28.1348 45.5973 27.7957 46.0143 27.4271C47.161 26.4246 47.7716 25.9086 47.846 25.9086C48.1141 25.9086 48.2481 26.3656 48.2481 27.2649C48.2481 27.7515 48.0247 28.1938 47.5631 28.5918C46.5355 29.4617 45.6717 30.1252 44.9718 30.5675C44.2719 31.0098 43.5719 31.2309 42.8571 31.2309C42.7082 31.2309 42.5593 31.2162 42.4252 31.1867C41.6062 31.0392 41.0105 30.7444 40.6382 30.3021C40.251 29.8598 40.0723 29.27 40.0723 28.5329C40.0723 27.7957 40.2956 26.8816 40.7424 25.8201C41.1892 24.7586 41.7402 23.6233 42.4103 22.4291C43.5124 20.4683 44.6144 18.6401 45.7015 16.9299L45.1207 17.0036C43.9442 17.1363 43.2592 17.1953 43.0656 17.1953H42.9316C42.6337 17.1953 42.3508 17.1363 42.0827 17.0183C41.8146 16.9004 41.6657 16.753 41.6657 16.5908C41.6657 16.4139 41.7402 16.2517 41.8891 16.0895C42.038 15.9273 42.1274 15.7946 42.1572 15.7062C42.2316 15.485 42.4997 15.2344 42.9613 14.969C43.423 14.7036 43.7655 14.5562 44.0038 14.5415C44.2421 14.5267 44.4655 14.512 44.6888 14.4972C44.9122 14.4825 45.1505 14.4825 45.4186 14.4677C45.6866 14.453 45.8951 14.453 46.044 14.4383L47.4141 14.3793C48.263 13.1114 48.8587 12.2857 49.1714 11.9319C49.4991 11.5633 49.6778 11.3716 49.7224 11.3422C49.7671 11.3127 49.8713 11.2832 50.0352 11.2832L50.7649 11.2095Z" fill="#AEA6E1"/>
<path d="M59.9235 25.9377C60.1171 25.9377 60.2362 26.0851 60.2809 26.38C60.3256 26.6748 60.3405 26.9697 60.3405 27.2941C60.3405 27.6184 60.3107 27.8248 60.2511 27.9428C59.9533 28.503 59.3129 29.1959 58.3152 30.0068C57.3174 30.8177 56.3643 31.2305 55.4707 31.2305C54.9197 31.2305 54.4134 31.0683 53.9368 30.744C53.4752 30.4196 53.2369 29.8447 53.2369 29.0338C53.2369 28.2229 53.4603 27.412 53.8922 26.6306C51.3605 29.7709 49.3947 31.3337 47.9502 31.3337C47.3842 31.3337 46.9226 31.1273 46.5652 30.7293C46.2078 30.3312 46.0439 29.9184 46.0439 29.4761C46.0439 29.0485 46.1035 28.6062 46.2226 28.1492C46.3418 27.6921 46.4758 27.2793 46.6099 26.9107C46.7439 26.5422 46.9524 26.0999 47.2204 25.5691C47.4885 25.0383 47.697 24.655 47.8161 24.4044C47.9353 24.1537 48.1586 23.7999 48.4565 23.3134C48.7543 22.8268 49.1266 22.1634 49.6032 21.3378C50.0797 20.5121 50.4669 19.8929 50.7797 19.4948C51.0924 19.0968 51.3902 18.8904 51.6881 18.8904C51.9859 18.8904 52.2391 19.0083 52.4625 19.2442C52.6859 19.4801 52.805 19.6865 52.805 19.8339C52.805 19.9814 52.4625 20.6596 51.7775 21.8685C49.767 25.4806 48.7543 27.5742 48.7543 28.1787C48.7543 28.3261 48.8139 28.3998 48.9181 28.3998C49.4096 28.3998 50.6308 27.353 52.5668 25.2595C54.5027 23.1659 55.6345 21.8243 55.9473 21.2346C56.26 20.6448 56.543 20.1435 56.8408 19.7455C57.1238 19.3474 57.3472 19.0968 57.4961 19.0083C57.928 18.7282 58.4939 18.5808 59.1938 18.5513C59.3129 18.5513 59.3874 18.5513 59.447 18.566C59.5065 18.5808 59.581 18.6692 59.6555 18.8166C59.7299 18.9641 59.7746 19.0968 59.7746 19.2C59.6852 19.4801 59.2831 20.232 58.5534 21.4557C57.8386 22.6794 57.4365 23.3723 57.3621 23.5198C56.1558 25.9819 55.5601 27.5889 55.5601 28.3261C55.5601 28.7536 55.7239 28.9601 56.0515 28.9601C56.6472 28.8863 57.3621 28.4145 58.196 27.5594C58.5088 27.2498 58.8066 26.9255 59.1044 26.6011C59.4023 26.2768 59.5959 26.0851 59.6555 26.0409C59.7299 25.9672 59.8193 25.9377 59.9235 25.9377Z" fill="#AEA6E1"/>
<path d="M64.346 22.4439C66.7437 19.7458 68.7988 18.3894 70.4816 18.3894C70.8986 18.3894 71.2412 18.5074 71.5092 18.758C71.7773 19.0087 71.9113 19.3183 71.9113 19.7163C71.9113 20.1144 71.6283 20.7631 71.0624 21.6919C70.4965 22.606 69.9753 23.3874 69.4988 24.0214C69.2456 24.3457 68.9626 24.5079 68.635 24.5079C68.3223 24.5079 68.0691 24.39 67.8904 24.1541C67.7117 23.9182 67.6223 23.6528 67.6223 23.3432C67.6223 22.6503 67.9946 21.8541 68.7541 20.9843L68.7243 20.9548C68.3818 20.9843 67.5628 21.6477 66.2225 22.9156C64.8971 24.1983 63.7652 25.3483 62.827 26.3508C61.9037 27.3681 60.891 28.5918 59.789 30.0514C59.4763 30.479 59.2082 30.7001 58.9848 30.7001C58.7615 30.7001 58.4785 30.6264 58.1211 30.4937C57.7637 30.361 57.5403 30.2578 57.4658 30.1988C57.3914 30.1399 57.3467 30.0367 57.3467 29.8892C57.3467 29.7565 57.3914 29.5796 57.4658 29.4027C57.5403 29.211 57.7041 28.9457 57.9126 28.6066C58.1211 28.2675 58.4636 27.7072 58.9104 26.9406C59.3571 26.1739 60.0422 25.0092 60.9804 23.4611C61.9186 21.9131 62.4696 20.9695 62.6632 20.6452C63.0504 19.9817 63.3632 19.4952 63.6163 19.2003C64.078 18.6253 64.8524 18.3452 65.9395 18.3452C66.1778 18.3452 66.3118 18.4927 66.3118 18.8023C66.3118 19.274 65.865 20.1734 64.9864 21.4708L64.346 22.4439Z" fill="#AEA6E1"/>
<path d="M80.7727 19.3775C80.7727 20.0409 80.5046 20.6306 79.9536 21.1319C79.4026 21.6332 78.792 21.8838 78.0921 21.8838C77.8687 21.8838 77.7198 21.8249 77.6453 21.7217C77.5709 21.6185 77.5411 21.471 77.5411 21.3088C77.5411 21.1467 77.556 20.9697 77.6007 20.8076C77.2283 20.9255 76.8262 21.1172 76.3795 21.3678C75.9327 21.6185 75.3817 21.987 74.7264 22.4883C74.0712 22.9896 73.7436 23.3434 73.7436 23.5941C73.7436 23.6678 73.8627 23.712 74.101 23.712C74.3392 23.712 74.7116 23.6235 75.203 23.4614C75.6944 23.2992 76.0519 23.2107 76.2455 23.2107C76.4391 23.2107 76.5731 23.2255 76.6326 23.2402C76.7667 23.3139 76.9007 23.4614 77.0645 23.6973C77.2135 23.9332 77.2879 24.1248 77.2879 24.2575C77.2879 24.3902 77.1539 24.5671 76.8858 24.7883C76.6178 25.0094 76.3199 25.1716 75.9923 25.2895C75.6498 25.4075 75.4264 25.4959 75.3221 25.5549C73.1777 26.7491 72.1054 27.56 72.1054 28.0023C72.1054 28.7837 72.7756 29.1818 74.1308 29.1818C74.9945 29.1818 75.8731 28.9164 76.7369 28.3709C77.4815 27.9138 78.1517 27.4421 78.7474 26.9555C79.3431 26.4837 79.7153 26.1889 79.8792 26.0709C80.043 25.953 80.1621 25.9088 80.2366 25.9088C80.5046 25.9088 80.6387 26.2036 80.6387 26.7934C80.6387 27.3831 80.6089 27.7664 80.5344 27.9433C80.46 28.135 80.2664 28.3561 79.9238 28.6363C77.7496 30.3907 75.6796 31.2753 73.7436 31.2753C72.7011 31.2753 71.882 31.1279 71.2565 30.8478C70.1098 30.3318 69.5439 29.5504 69.5439 28.4888C69.5439 27.103 70.512 26.0414 72.4628 25.3338C72.0756 25.1568 71.8225 24.9504 71.7182 24.6703C71.5991 24.4049 71.5544 23.9774 71.5544 23.3876C71.5544 22.7979 71.8374 22.1787 72.3884 21.5153C72.9394 20.8518 73.6244 20.3063 74.4286 19.8935C76.2157 18.9352 77.824 18.4634 79.2239 18.4634C79.5664 18.4634 79.8941 18.5371 80.2515 18.6993C80.6089 18.8614 80.7727 19.0826 80.7727 19.3775Z" fill="#AEA6E1"/>
<path d="M115.531 9.11577H115.725C115.784 9.11577 115.829 9.11577 115.844 9.13052C115.859 9.14526 115.874 9.14526 115.903 9.16001C115.933 9.16001 115.948 9.17475 115.978 9.20423C116.023 9.24846 116.097 9.29269 116.186 9.33692C116.306 9.42538 116.365 9.52859 116.365 9.64653C116.365 9.76448 116.246 10.0151 116.008 10.3984C115.769 10.7818 115.159 11.7106 114.161 13.2144C111.883 16.6644 109.842 19.8784 108.04 22.8271C104.928 27.9577 103.349 30.5378 103.319 30.5673C103.29 30.5968 103.275 30.6263 103.26 30.6558C103.245 30.7147 103.215 30.7442 103.141 30.7442L102.932 30.7L102.515 30.8032L102.277 30.759L102.024 30.8032H101.935L101.086 30.9211C100.579 30.9211 100.326 30.7442 100.326 30.4051C100.326 30.2577 100.371 30.0808 100.46 29.8744C100.773 29.1372 102.366 26.4687 105.226 21.8393C103.349 21.8835 101.488 21.913 99.656 21.913L96.3797 21.8982C95.8436 22.7533 95.099 23.9623 94.1608 25.5398C92.1354 28.975 91.0632 30.7 90.9291 30.7295C90.7951 30.759 90.6909 30.7884 90.6015 30.7884C90.5122 30.7884 90.4377 30.7442 90.3781 30.641C90.3037 30.5526 90.259 30.4936 90.2292 30.4936C90.1994 30.4936 90.1547 30.5083 90.0654 30.5526C89.9909 30.5968 89.8718 30.6115 89.708 30.6115L89.3506 30.5968L89.2165 30.5083C89.2016 30.5083 89.1868 30.5231 89.1719 30.5526C89.157 30.582 89.1123 30.5968 89.0527 30.5968C88.6208 30.5968 88.3975 30.4199 88.3975 30.0513C88.3975 29.8154 88.4868 29.491 88.6506 29.093C88.8293 28.6949 89.0527 28.2673 89.3357 27.8103C89.6186 27.3533 90.3334 26.2475 91.5099 24.5225C92.6715 22.7976 93.2523 21.9277 93.2523 21.913C93.0587 21.8982 92.8353 21.8982 92.5822 21.8835C92.0609 21.8835 91.7035 21.8687 91.4801 21.8245C90.8993 21.7213 90.4973 21.2495 90.2888 20.4092C90.1696 19.9963 90.125 19.731 90.1399 19.5983C90.1399 19.3329 90.259 19.1855 90.4973 19.1855L90.8993 19.2887C91.1078 19.3034 91.5844 19.3181 92.3588 19.3624C93.1332 19.4066 93.6842 19.4214 94.0267 19.4214L94.8905 19.3919C96.2159 17.3425 97.7945 15.0131 99.6411 12.4183C98.3008 13.5093 96.8116 14.0548 95.1734 14.0548C94.399 14.0548 93.7289 13.8779 93.1779 13.5093C92.612 13.1407 92.3439 12.6689 92.3439 12.1087C92.3439 11.5484 92.5524 11.1061 92.9843 10.767C93.4161 10.4427 93.8182 10.2805 94.2054 10.2805C94.5926 10.2805 94.7862 10.3395 94.7862 10.4574C94.7862 10.5016 94.7267 10.5459 94.6224 10.5901C94.5182 10.6491 94.4586 10.6933 94.4586 10.7375C94.4586 10.8997 94.6373 11.0471 94.9947 11.1651C95.3521 11.283 95.7542 11.3568 96.201 11.3568C96.6477 11.3568 97.1839 11.2241 97.8391 10.9734C98.4944 10.7228 99.1645 10.3837 99.8645 9.98563C100.847 9.42538 101.622 8.9536 102.188 8.58501C102.515 8.42284 102.813 8.34912 103.111 8.34912C103.409 8.34912 103.602 8.37861 103.736 8.45232C103.871 8.5113 103.96 8.58502 104.019 8.64399C104.079 8.70296 104.153 8.79142 104.213 8.89463C104.287 8.99783 104.347 9.08629 104.422 9.13052C104.481 9.18949 104.526 9.24846 104.526 9.32218C104.526 9.3959 104.481 9.4991 104.407 9.66128C104.332 9.80871 103.945 10.4279 103.245 11.5042C102.545 12.5805 101.637 13.9516 100.535 15.6176C99.4326 17.2836 98.6284 18.5073 98.1221 19.3034C100.847 19.3034 103.781 19.2592 106.938 19.156C110.78 13.1554 112.806 10.0151 113.014 9.72025C113.223 9.42538 113.416 9.23372 113.595 9.14526C113.774 9.0568 113.982 9.01257 114.235 9.01257L115.531 9.11577Z" fill="#AEA6E1"/>
<path d="M120.505 19.1709C120.818 19.1709 121.131 19.3036 121.444 19.5837C121.771 19.8638 121.92 20.2766 121.92 20.8369C121.92 21.3971 121.727 22.1195 121.324 23.0189C120.922 23.9035 120.386 24.8176 119.686 25.7464C119.001 26.6605 118.227 27.5303 117.408 28.3412C116.574 29.1521 115.68 29.8155 114.727 30.3316C113.759 30.8476 112.895 31.113 112.106 31.113C111.317 31.113 110.691 30.8623 110.215 30.3758C109.738 29.8893 109.5 29.2111 109.5 28.3412C109.5 27.4714 109.723 26.4983 110.155 25.4515C110.587 24.39 111.138 23.4612 111.823 22.6503C112.508 21.8394 113.238 21.117 114.042 20.4683C115.695 19.1414 117.155 18.4927 118.406 18.4927C118.971 18.4927 119.388 18.6254 119.671 18.9055C119.776 18.994 119.82 19.0824 119.82 19.1414V19.2298C119.984 19.1709 120.208 19.1709 120.505 19.1709ZM118.971 21.176H118.867C118.51 21.176 118.331 20.9253 118.331 20.4093C117.586 20.6452 116.812 21.0728 115.993 21.6772C115.174 22.2817 114.444 23.0041 113.804 23.8298C112.493 25.481 111.838 26.8816 111.823 28.0169C111.823 28.5771 112.032 28.8572 112.449 28.8572C112.866 28.8572 113.491 28.5771 114.31 28.0463C115.129 27.5156 115.948 26.7342 116.767 25.7169C117.572 24.7144 118.182 23.8298 118.584 23.0926C118.986 22.3554 119.195 21.8542 119.195 21.574C119.18 21.3086 119.105 21.176 118.971 21.176Z" fill="#AEA6E1"/>
<path d="M121.592 30.7736L120.848 30.7441H120.58C120.475 30.7146 120.371 30.6556 120.252 30.5672C120.133 30.4787 120.043 30.405 119.984 30.3755C119.924 30.346 119.895 30.2576 119.895 30.1544C119.895 30.0512 119.939 29.8595 120.014 29.6089C121.994 25.2891 123.915 21.8244 125.777 19.2443C125.985 18.9642 126.313 18.743 126.76 18.5956C127.207 18.4482 127.653 18.3745 128.085 18.3745C128.338 18.3745 128.472 18.5661 128.472 18.9642C128.472 19.0821 128.428 19.2296 128.353 19.4065C128.279 19.5982 128.07 19.893 127.743 20.3206C127.415 20.7481 127.028 21.2347 126.581 21.7654C126.134 22.2962 125.881 22.6205 125.822 22.709C127.222 21.2789 128.472 20.2174 129.604 19.5097C130.736 18.8168 131.54 18.4629 132.047 18.4629C132.553 18.4629 132.94 18.6103 133.208 18.8905C133.476 19.1706 133.61 19.4802 133.61 19.8046C133.61 20.1289 133.581 20.409 133.536 20.6154C133.491 20.8366 133.402 21.0577 133.283 21.2936C133.164 21.5295 133.059 21.7359 132.97 21.8981C132.881 22.0603 132.732 22.2814 132.538 22.5468C132.33 22.8122 132.196 23.0039 132.121 23.1071C132.047 23.2103 131.883 23.4019 131.645 23.682C131.406 23.9622 131.272 24.1243 131.257 24.1538C131.54 23.8737 131.942 23.4609 132.449 22.9007C132.955 22.3404 133.387 21.8834 133.744 21.5148C134.102 21.1462 134.534 20.7186 135.07 20.2469C135.606 19.7751 136.097 19.3917 136.544 19.1116C137.646 18.4334 138.763 18.0796 139.895 18.0796C140.282 18.0796 140.61 18.1975 140.878 18.4482C141.146 18.6988 141.28 18.9789 141.28 19.318C141.28 19.6571 140.863 20.468 140.044 21.7359C139.225 23.0039 138.391 24.2865 137.572 25.5692C136.753 26.8519 136.336 27.6627 136.336 28.0018C136.336 28.4589 136.425 28.739 136.589 28.8275C136.767 28.9159 136.976 28.9454 137.214 28.9307C137.452 28.9159 137.81 28.7538 138.242 28.4589C138.689 28.164 139.076 27.8692 139.418 27.5448C139.984 27.0435 140.491 26.557 140.982 26.0852C141.086 25.9968 141.19 25.9525 141.324 25.9525C141.518 25.9525 141.637 26.1 141.682 26.3948C141.727 26.6897 141.741 26.9846 141.741 27.3089C141.741 27.6333 141.712 27.8397 141.652 27.9576C141.354 28.5179 140.699 29.2108 139.701 30.0364C138.689 30.8473 137.721 31.2601 136.797 31.2601C136.678 31.2601 136.604 31.2601 136.559 31.2454C135.516 31.1422 134.787 30.862 134.385 30.3903C133.983 29.9185 133.789 29.3582 133.789 28.7243C133.789 28.0903 134.012 27.2942 134.459 26.3801C134.906 25.466 135.382 24.6256 135.919 23.8885C136.455 23.1513 136.931 22.4731 137.378 21.8686C137.825 21.2641 138.048 20.9398 138.048 20.8956C138.048 20.8513 138.003 20.8218 137.929 20.8218C137.616 20.8218 136.916 21.3231 135.814 22.3404C133.953 24.0654 132.344 25.7314 130.989 27.3237C130.632 27.7512 129.783 28.8127 128.458 30.5377C128.309 30.7441 128.055 30.8473 127.728 30.8473C127.4 30.8473 127.058 30.7883 126.7 30.6556C126.343 30.5229 126.164 30.3608 126.164 30.1691C126.164 30.0659 126.968 28.6505 128.592 25.923C130.215 23.1955 131.019 21.7064 131.019 21.4706C131.019 21.2199 130.87 21.102 130.572 21.102C130.274 21.102 129.649 21.5443 128.711 22.4289C126.134 24.8615 124.139 27.2942 122.724 29.6973C122.635 29.8448 122.456 30.0659 122.188 30.3608C121.92 30.6556 121.682 30.7736 121.592 30.7736Z" fill="#AEA6E1"/>
<path d="M151.123 19.3775C151.123 20.0409 150.855 20.6306 150.304 21.1319C149.753 21.6332 149.143 21.8838 148.443 21.8838C148.219 21.8838 148.07 21.8249 147.996 21.7217C147.921 21.6185 147.892 21.471 147.892 21.3088C147.892 21.1467 147.907 20.9697 147.951 20.8076C147.579 20.9255 147.177 21.1172 146.73 21.3678C146.283 21.6185 145.732 21.987 145.077 22.4883C144.422 22.9896 144.094 23.3434 144.094 23.5941C144.094 23.6678 144.213 23.712 144.452 23.712C144.69 23.712 145.062 23.6235 145.554 23.4614C146.045 23.2992 146.402 23.2107 146.596 23.2107C146.79 23.2107 146.924 23.2255 146.983 23.2402C147.117 23.3139 147.251 23.4614 147.415 23.6973C147.564 23.9332 147.638 24.1248 147.638 24.2575C147.638 24.3902 147.504 24.5671 147.236 24.7883C146.968 25.0094 146.671 25.1716 146.343 25.2895C146 25.4075 145.777 25.4959 145.673 25.5549C143.528 26.7491 142.456 27.56 142.456 28.0023C142.456 28.7837 143.126 29.1818 144.481 29.1818C145.345 29.1818 146.224 28.9164 147.087 28.3709C147.832 27.9138 148.502 27.4421 149.098 26.9555C149.694 26.4837 150.066 26.1889 150.23 26.0709C150.394 25.953 150.513 25.9088 150.587 25.9088C150.855 25.9088 150.989 26.2036 150.989 26.7934C150.989 27.3831 150.959 27.7664 150.885 27.9433C150.811 28.135 150.617 28.3561 150.274 28.6363C148.1 30.3907 146.03 31.2753 144.094 31.2753C143.052 31.2753 142.233 31.1279 141.607 30.8478C140.46 30.3318 139.895 29.5504 139.895 28.4888C139.895 27.103 140.863 26.0414 142.813 25.3338C142.426 25.1568 142.173 24.9504 142.069 24.6703C141.95 24.4049 141.905 23.9774 141.905 23.3876C141.905 22.7979 142.188 22.1787 142.739 21.5153C143.29 20.8518 143.975 20.3063 144.779 19.8935C146.566 18.9352 148.175 18.4634 149.574 18.4634C149.917 18.4634 150.245 18.5371 150.602 18.6993C150.959 18.8614 151.123 19.0826 151.123 19.3775Z" fill="#AEA6E1"/>
<path d="M0.161133 34.8572C4.07779 36.479 8.0689 37.7322 12.1345 38.6905C16.1703 39.693 20.2806 40.4007 24.3908 40.843C26.4459 41.1232 28.516 41.1526 30.5562 41.3443C32.6262 41.359 34.6813 41.5212 36.7365 41.4033L39.8192 41.3296C40.8467 41.3148 41.8743 41.1821 42.9019 41.1232C43.9294 41.0347 44.957 40.9905 45.9697 40.8578L49.0226 40.4302C53.1179 39.9879 57.0942 39.0443 61.0555 37.9091C65.0615 36.8181 68.8441 35.3733 72.8502 33.8694C76.9455 32.3804 81.3834 31.4073 85.8809 31.8791C88.0998 32.1592 90.3336 32.8669 92.1505 34.1643C93.9822 35.447 95.2928 37.2751 96.1267 39.1918C94.8758 37.4816 93.3121 36.0809 91.5101 35.2111C89.7082 34.3412 87.7275 33.9874 85.7617 34.0464C81.7855 34.1053 77.8688 35.4175 74.1904 37.0687C70.4525 38.8969 66.4018 40.5482 62.3213 41.9193C58.2111 43.2314 53.9668 44.2782 49.6629 44.809C41.0999 45.9295 32.3284 45.9442 23.8696 44.2487C19.6253 43.4821 15.4852 42.2879 11.4792 40.7693C7.50299 39.1918 3.61613 37.3489 0.161133 34.8572Z" fill="#AEA6E1"/>
<path d="M142.575 10.31C139.254 8.9094 135.874 7.81839 132.448 6.96328C129.038 6.06394 125.583 5.42998 122.113 4.98768C120.386 4.7223 118.628 4.66333 116.901 4.45692C115.158 4.41269 113.431 4.23577 111.689 4.30948C110.825 4.32423 109.946 4.32423 109.082 4.30948C108.219 4.30948 107.34 4.39794 106.476 4.42743C105.613 4.4864 104.734 4.50115 103.87 4.58961L101.279 4.89922C97.809 5.17934 94.4434 5.88702 91.0777 6.75688C87.6674 7.56776 84.4358 8.71774 80.9957 9.86772C77.4662 11.0324 73.6389 11.7401 69.7967 11.2094C67.9054 10.8997 65.9992 10.2363 64.495 9.05683C62.9611 7.89211 61.9187 6.29983 61.2783 4.63384C62.3357 6.09343 63.6462 7.28764 65.1503 8.0248C66.6544 8.76197 68.3075 9.07158 69.9605 9.05683C73.2964 9.05683 76.6024 7.99531 79.7298 6.66842C82.9167 5.1646 86.4164 3.8377 89.9012 2.74669C93.4158 1.69992 97.0793 0.903779 100.743 0.520453C108.055 -0.246199 115.531 -0.06928 122.694 1.61146C126.283 2.36337 129.783 3.51335 133.133 4.9287C136.499 6.37355 139.746 8.05429 142.575 10.31Z" fill="#AEA6E1"/>
</svg>
