<svg width="823" height="510" viewBox="0 0 823 510" fill="none" xmlns="http://www.w3.org/2000/svg">
<g opacity="0.5" filter="url(#filter0_f_16601_61500)">
<path d="M623 276C623 294.778 528.308 310 411.5 310C294.692 310 200 294.778 200 276C200 257.222 294.692 242 411.5 242C528.308 242 623 257.222 623 276Z" fill="#DB14F1"/>
</g>
<rect x="180.5" y="25.5" width="539" height="308" rx="19.5" stroke="#B7B7B7" stroke-dasharray="5 5"/>
<rect x="210" y="57" width="480" height="245" rx="20" fill="#E1F9FF"/>
<path d="M658.51 149.106C667.725 153.445 679.176 207.611 686.302 249.192C688.366 261.235 679.021 272.109 666.802 272.132L220.154 272.992C218.042 272.996 216.438 270.898 217.303 268.971C217.487 268.561 217.59 268.205 217.662 267.761C218.182 264.563 220.036 261.026 225.289 252.349C226.158 250.914 227.198 249.57 228.469 248.474C239.338 239.091 248.93 241.04 252.522 243.342C253.624 244.111 256.547 246.109 260.445 248.683C261.96 249.684 263.611 250.621 265.427 250.614C270.841 250.594 274.448 245.126 275.692 241.973C276.87 239.54 280.404 230.749 285.117 215.053C288.393 201.412 293.49 202.636 296.486 205.787C297.371 206.717 298.135 207.757 299.043 208.665C299.797 209.42 300.766 210.383 301.889 211.489C304.272 213.838 307.676 215.996 310.309 213.931C314.202 210.878 316.752 203.2 317.712 198.628C320.461 188.133 326.823 164.863 330.278 155.738C334.448 147.665 339.949 150.186 342.975 153.192C343.72 153.932 344.279 154.831 344.789 155.749C348.84 163.042 356.296 176.386 358.946 180.833C361.774 185.578 365.099 185.548 366.408 184.939C367.408 184.423 369.822 182.877 372.451 180.412C373.419 179.504 374.385 178.527 375.647 178.117C377.528 177.506 379.344 177.871 380.599 178.401C381.383 178.733 382.023 179.313 382.621 179.919C383.248 180.554 384.041 181.355 384.888 182.207C386.595 183.927 389.315 185.63 391.106 183.998C391.615 183.534 392.237 182.918 392.62 182.346C394.921 178.905 398.524 166.306 400.181 159.844C400.729 157.805 402.289 152.901 404.63 147.499C405.545 145.386 406.785 142.854 409.085 142.74C415.805 142.409 420.011 164.531 421.387 177.183C422.958 190.263 426.178 217.7 426.492 222.81C426.852 228.669 428.534 234.529 430.022 240.388C430.29 241.442 430.949 243.312 431.666 244.13C434.163 246.975 436.575 241.413 438.532 238.173C441.26 233.657 444.501 230.305 446.717 228.439C447.604 227.692 448.618 227.131 449.662 226.628C454.695 224.2 463.275 219.699 466.941 216.422C470.068 213.628 473.393 213.686 475.545 214.344C476.666 214.687 477.574 215.475 478.57 216.094C480.219 217.119 482.818 218.247 485.791 218.247C491.446 218.247 495.74 208.818 497.18 204.103C499.405 198.932 504.249 187.495 505.819 183.114C507.578 178.21 509.652 174.037 513.453 168.957C514.364 167.74 515.415 166.592 516.757 165.877C522.019 163.069 525.802 166.966 528.775 170.752C529.975 172.281 531.29 173.908 533.184 174.342C536.42 175.083 538.765 172.323 540.828 168.539C541.329 167.62 541.873 166.732 542.346 165.798C545.551 159.474 550.383 140.797 552.552 131.556C553.599 128.21 556.872 118.415 561.584 106.004C568.182 93.9586 575.591 106.46 578.471 114.217C584.754 131.403 597.87 166.871 600.07 171.251C602.819 176.726 604.389 177.183 609.102 177.183C613.454 177.499 620.474 169.402 624.659 163.67C625.833 162.062 627.11 160.427 628.966 159.706C629.34 159.56 629.727 159.442 630.112 159.37C631.859 159.041 633.141 160.637 634.439 161.852C637.979 165.165 640.682 163.566 641.697 162.126C644.4 159.106 649.745 153.515 653.404 150.794C654.915 149.67 656.806 148.304 658.51 149.106Z" fill="url(#paint0_linear_16601_61500)"/>
<rect x="145" y="130" width="110" height="115" rx="20" fill="white"/>
<path d="M217.099 155.468C221.549 155.481 225.813 157.189 228.96 160.219C232.107 163.25 233.88 167.356 233.894 171.641V203.984C233.88 208.269 232.107 212.375 228.96 215.406C225.813 218.436 221.549 220.144 217.099 220.157H183.512C179.062 220.144 174.798 218.436 171.651 215.406C168.504 212.375 166.73 208.269 166.717 203.984V171.641C166.73 167.356 168.504 163.25 171.651 160.219C174.798 157.189 179.062 155.481 183.512 155.468H217.099ZM217.099 149H183.512C170.58 149 160 159.188 160 171.641V203.984C160 216.437 170.58 226.625 183.512 226.625H217.099C230.03 226.625 240.611 216.437 240.611 203.984V171.641C240.611 159.188 230.03 149 217.099 149Z" fill="#FA6488"/>
<path d="M222.136 171.641C221.14 171.641 220.166 171.356 219.337 170.823C218.509 170.29 217.863 169.532 217.482 168.646C217.1 167.759 217.001 166.784 217.195 165.843C217.389 164.902 217.869 164.037 218.574 163.359C219.279 162.68 220.176 162.218 221.154 162.031C222.131 161.844 223.144 161.94 224.064 162.307C224.985 162.674 225.772 163.296 226.325 164.094C226.879 164.892 227.175 165.83 227.175 166.789C227.176 167.427 227.047 168.058 226.794 168.648C226.541 169.237 226.17 169.772 225.702 170.223C225.234 170.674 224.678 171.031 224.066 171.274C223.454 171.518 222.798 171.642 222.136 171.641ZM200.305 174.874C202.962 174.874 205.56 175.633 207.769 177.055C209.979 178.476 211.701 180.497 212.718 182.861C213.735 185.225 214.001 187.827 213.483 190.336C212.964 192.846 211.684 195.151 209.805 196.961C207.926 198.77 205.532 200.002 202.926 200.502C200.32 201.001 197.618 200.745 195.163 199.765C192.708 198.786 190.61 197.128 189.134 195C187.657 192.873 186.869 190.371 186.869 187.812C186.873 184.382 188.29 181.093 190.809 178.668C193.328 176.242 196.743 174.878 200.305 174.874ZM200.305 168.406C196.319 168.406 192.423 169.544 189.109 171.676C185.795 173.809 183.212 176.84 181.686 180.386C180.161 183.932 179.762 187.834 180.54 191.598C181.317 195.363 183.237 198.82 186.055 201.534C188.873 204.248 192.464 206.097 196.373 206.846C200.283 207.594 204.335 207.21 208.017 205.741C211.699 204.272 214.847 201.785 217.061 198.594C219.276 195.402 220.458 191.65 220.458 187.812C220.458 182.665 218.334 177.729 214.555 174.09C210.776 170.451 205.65 168.406 200.305 168.406Z" fill="#FA6488"/>
<rect x="263" y="8" width="110" height="115" rx="20" fill="white"/>
<path d="M351 46.3902C348.521 47.4674 345.898 48.1772 343.213 48.4969C346.034 46.8451 348.156 44.2209 349.18 41.1164C346.513 42.676 343.6 43.7702 340.566 44.3523C339.288 43.0132 337.751 41.948 336.049 41.2213C334.347 40.4946 332.515 40.1216 330.664 40.125C323.17 40.125 317.106 46.101 317.106 53.4677C317.101 54.4924 317.218 55.514 317.456 56.5108C312.083 56.2589 306.821 54.8882 302.008 52.4863C297.195 50.0844 292.936 46.7043 289.504 42.5622C288.3 44.592 287.663 46.908 287.66 49.268C287.66 53.8946 290.074 57.9841 293.719 60.38C291.559 60.3288 289.444 59.7572 287.553 58.7139V58.8791C287.553 65.3508 292.234 70.7347 298.431 71.9602C297.265 72.2708 296.065 72.4282 294.859 72.4284C294.003 72.4299 293.149 72.3468 292.31 72.1805C294.033 77.4818 299.046 81.3373 304.985 81.4474C300.159 85.1665 294.235 87.1766 288.142 87.1618C287.061 87.1602 285.98 87.0958 284.906 86.969C291.104 90.9267 298.309 93.0201 305.662 93.0001C330.635 93.0001 344.278 72.6625 344.278 55.0237C344.278 54.4454 344.263 53.867 344.235 53.3025C346.883 51.4189 349.174 49.0781 351 46.3902Z" fill="#4CCEEB"/>
<rect x="255" y="251" width="96" height="101" rx="20" fill="white"/>
<path d="M316.966 285.375H289.216C287.7 285.375 286.375 286.466 286.375 287.964V315.776C286.375 317.282 287.7 318.625 289.216 318.625H316.958C318.482 318.625 319.625 317.273 319.625 315.776V287.964C319.634 286.466 318.482 285.375 316.966 285.375ZM296.682 313.091H291.918V298.28H296.682V313.091ZM294.465 296.028H294.431C292.906 296.028 291.919 294.894 291.919 293.473C291.919 292.026 292.932 290.918 294.491 290.918C296.049 290.918 297.003 292.018 297.037 293.473C297.037 294.894 296.049 296.028 294.465 296.028ZM314.091 313.091H309.327V304.993C309.327 303.052 308.634 301.727 306.911 301.727C305.594 301.727 304.815 302.618 304.468 303.485C304.338 303.797 304.303 304.221 304.303 304.655V313.091H299.54V298.28H304.303V300.341C304.996 299.354 306.079 297.934 308.599 297.934C311.726 297.934 314.091 299.995 314.091 304.438L314.091 313.091Z" fill="#68A3DA"/>
<rect x="432" width="96" height="101" rx="20" fill="white"/>
<path d="M496.782 43.52C496.782 40.5904 494.583 38.2337 491.867 38.2337C488.187 38.0651 484.435 38 480.6 38H479.405C475.579 38 471.82 38.0651 468.141 38.2344C465.431 38.2344 463.233 40.6041 463.233 43.5337C463.067 45.8507 462.996 48.1683 463 50.486C462.994 52.8036 463.069 55.1234 463.226 57.4454C463.226 60.375 465.425 62.7513 468.134 62.7513C472 62.9271 475.965 63.0052 479.996 62.9987C484.034 63.0117 487.988 62.9292 491.858 62.7513C494.574 62.7513 496.772 60.375 496.772 57.4454C496.932 55.1213 497.005 52.8036 496.998 50.4795C497.013 48.1618 496.941 45.842 496.782 43.52ZM476.748 56.8725V44.0799L486.378 50.473L476.748 56.8725Z" fill="#FF2525"/>
<rect x="439" y="230" width="126" height="133" rx="20" fill="white"/>
<path d="M502.008 260C481.571 260 465 276.564 465 296.992C465 312.135 474.12 325.148 487.155 330.879C487.056 328.303 487.139 325.198 487.8 322.391C488.51 319.385 492.558 302.227 492.558 302.227C492.558 302.227 491.368 299.865 491.368 296.381C491.368 290.898 494.541 286.802 498.506 286.802C501.876 286.802 503.495 289.329 503.495 292.351C503.495 295.737 501.331 300.79 500.224 305.48C499.299 309.41 502.19 312.598 506.073 312.598C513.078 312.598 517.803 303.597 517.803 292.929C517.803 284.821 512.334 278.76 502.405 278.76C491.187 278.76 484.182 287.133 484.182 296.48C484.182 299.7 485.14 301.979 486.627 303.73C487.304 304.539 487.403 304.869 487.155 305.794C486.974 306.471 486.577 308.106 486.395 308.766C486.148 309.708 485.388 310.038 484.545 309.691C479.374 307.577 476.962 301.929 476.962 295.555C476.962 285.052 485.834 272.452 503.413 272.452C517.539 272.452 526.84 282.674 526.84 293.639C526.84 308.155 518.761 318.989 506.866 318.989C502.867 318.989 499.117 316.825 497.828 314.381C497.828 314.381 495.681 322.902 495.218 324.554C494.441 327.411 492.905 330.251 491.501 332.481C494.907 333.485 498.44 333.997 501.992 334C522.429 334 539 317.436 539 297.008C539 276.58 522.445 260 502.008 260Z" fill="#FF5555"/>
<rect x="592" y="104" width="144" height="151" rx="20" fill="white"/>
<path fill-rule="evenodd" clip-rule="evenodd" d="M708 180.134C708 156.819 688.368 137.914 664.156 137.914C639.944 137.914 620.312 156.819 620.312 180.134C620.312 201.206 636.343 218.673 657.306 221.843V192.342H646.171V180.134H657.306V170.832C657.306 160.253 663.853 154.404 673.866 154.404C678.664 154.404 683.682 155.23 683.682 155.23V165.621H678.151C672.708 165.621 671.005 168.874 671.005 172.218V180.134H683.164L681.222 192.342H671.007V221.847C691.97 218.678 708 201.212 708 180.134Z" fill="#545AEB"/>
<defs>
<filter id="filter0_f_16601_61500" x="0" y="42" width="823" height="468" filterUnits="userSpaceOnUse" color-interpolation-filters="sRGB">
<feFlood flood-opacity="0" result="BackgroundImageFix"/>
<feBlend mode="normal" in="SourceGraphic" in2="BackgroundImageFix" result="shape"/>
<feGaussianBlur stdDeviation="100" result="effect1_foregroundBlur_16601_61500"/>
</filter>
<linearGradient id="paint0_linear_16601_61500" x1="453" y1="101" x2="453" y2="273" gradientUnits="userSpaceOnUse">
<stop stop-color="#A5DDFF"/>
<stop offset="1" stop-color="#D3EFFF" stop-opacity="0"/>
</linearGradient>
</defs>
</svg>
