<svg width="18" height="18" viewBox="0 0 18 18" fill="none" xmlns="http://www.w3.org/2000/svg">
<path d="M4.05886 17.5947V5.91504H0.42605V17.5947H4.05886ZM2.22293 4.35254C3.3948 4.35254 4.3323 3.37598 4.3323 2.2041C4.3323 1.07129 3.3948 0.133789 2.22293 0.133789C1.09011 0.133789 0.152613 1.07129 0.152613 2.2041C0.152613 3.37598 1.09011 4.35254 2.22293 4.35254ZM17.6136 17.5947H17.6526V11.1885C17.6526 8.06348 16.9495 5.6416 13.2776 5.6416C11.5198 5.6416 10.3479 6.61816 9.84011 7.5166H9.80105V5.91504H6.32449V17.5947H9.9573V11.8135C9.9573 10.29 10.2307 8.84473 12.1057 8.84473C13.9807 8.84473 14.0198 10.5635 14.0198 11.9307V17.5947H17.6136Z" fill="#2F2F2F"/>
</svg>
