<svg width="21" height="17" viewBox="0 0 21 17" fill="none" xmlns="http://www.w3.org/2000/svg">
<path d="M18.1167 4.03223C18.898 3.44629 19.6011 2.74316 20.148 1.92285C19.4449 2.23535 18.6245 2.46973 17.8042 2.54785C18.6636 2.04004 19.2886 1.25879 19.6011 0.282227C18.8199 0.750977 17.9214 1.10254 17.023 1.29785C16.2417 0.477539 15.187 0.00878906 14.0152 0.00878906C11.7495 0.00878906 9.9136 1.84473 9.9136 4.11035C9.9136 4.42285 9.95266 4.73535 10.0308 5.04785C6.63235 4.85254 3.58548 3.21191 1.55423 0.750977C1.20266 1.33691 1.00735 2.04004 1.00735 2.82129C1.00735 4.22754 1.71048 5.47754 2.84329 6.21973C2.17923 6.18066 1.51516 6.02441 0.968288 5.71191V5.75098C0.968288 7.74316 2.37454 9.38379 4.24954 9.77441C3.93704 9.85254 3.54641 9.93066 3.19485 9.93066C2.92141 9.93066 2.68704 9.8916 2.4136 9.85254C2.92141 11.4932 4.44485 12.665 6.24173 12.7041C4.83548 13.7979 3.07766 14.4619 1.1636 14.4619C0.812038 14.4619 0.499538 14.4229 0.187038 14.3838C1.98391 15.5557 4.13235 16.2197 6.4761 16.2197C14.0152 16.2197 18.1167 10.0088 18.1167 4.5791C18.1167 4.38379 18.1167 4.22754 18.1167 4.03223Z" fill="#2F2F2F"/>
</svg>
